# xmcd CD database file
#
# Track frame offsets:
#	150
#	44044
#	81252
#	114278
#	136953
#	171334
#	205271
#	238032
#	264434
#	302411
#
# Disc length: 4562 seconds
#
# Revision: 0
# Processed by: cddbd v1.5.2PL0 Copyright (c) Steve Scherf et al.
# Submitted via: CDex 1.70beta2
#
DISCID=8611d00a
DTITLE=Sun Lane Ltd - 30th Anniversary Vol 2
DYEAR=1900
DGENRE=Jazz
TTITLE0=Please Send Me Someone To Love
TTITLE1=The Object Of My Affection
TTITLE2=What a Wonderful World
TTITLE3=Bucket´s Got A Hole In It
TTITLE4=Mary´s Boy Child
TTITLE5=I Can´t Give You Anything But Love
TTITLE6=C´est Si Bon
TTITLE7=Oh How I Miss You Tonight
TTITLE8=When I Grow Too Old To Dream
TTITLE9=All I Ever Need Is You
EXTD=
EXTT0=
EXTT1=
EXTT2=
EXTT3=
EXTT4=
EXTT5=
EXTT6=
EXTT7=
EXTT8=
EXTT9=
PLAYORDER=
